<svg width="285" height="454" viewBox="0 0 285 454" fill="none" xmlns="http://www.w3.org/2000/svg">
<path fill-rule="evenodd" clip-rule="evenodd" d="M181.221 223.917C178.24 223.349 175.212 223.02 172.19 222.977C168.539 222.923 164.585 223.144 161.08 224.747C158.282 226.027 156.035 228.226 154.25 230.524C152.406 232.898 150.964 235.693 150.295 238.666C149.347 242.872 149.107 247.513 150.441 251.766C152.526 258.415 156.431 265.161 162.344 269.259C166.765 272.323 172.519 273.319 177.743 273.057C183.977 272.745 190.435 270.642 195.365 266.791C199.644 263.448 202.46 258.454 204.159 253.492C205.533 249.478 206.12 244.93 205.121 240.684C204.312 237.247 202.287 234.09 199.775 231.674C197.006 229.013 193.378 227.517 189.967 226.303C187.134 225.294 184.202 224.485 181.221 223.917ZM180.813 226.046C183.676 226.592 186.5 227.371 189.231 228.343C192.558 229.527 195.878 230.949 198.245 233.224C200.489 235.381 202.289 238.228 202.98 241.165C203.856 244.887 203.35 249.074 202.077 252.791C200.472 257.48 197.804 262.116 193.995 265.091C189.492 268.609 183.429 270.603 177.621 270.894C172.767 271.136 167.457 270.161 163.6 267.489C158.253 263.784 154.517 257.445 152.538 251.136C151.363 247.387 151.552 243.094 152.442 239.145C153.029 236.539 154.324 234.003 155.998 231.848C157.65 229.721 159.684 227.783 162.013 226.717C165.011 225.346 168.637 225.093 172.167 225.145C175.051 225.187 177.95 225.5 180.813 226.046Z" fill="#EFF4F9"/>
<path fill-rule="evenodd" clip-rule="evenodd" d="M155.49 230.277C155.273 230.251 155.053 230.289 154.859 230.387C154.664 230.485 154.504 230.637 154.399 230.826C154.293 231.014 154.247 231.23 154.267 231.445C154.286 231.659 154.37 231.864 154.508 232.032C154.508 232.032 155.361 233.106 156.5 234.351C157.639 235.595 159.022 237.014 160.365 237.831C166.052 241.292 172.725 242.794 179.102 243.879C192.594 246.176 204.012 242.464 204.012 242.464C204.152 242.422 204.283 242.353 204.395 242.261C204.508 242.169 204.6 242.055 204.667 241.927C204.735 241.799 204.775 241.658 204.786 241.514C204.798 241.37 204.78 241.225 204.733 241.088C204.687 240.95 204.613 240.823 204.516 240.714C204.42 240.605 204.302 240.516 204.17 240.452C204.038 240.388 203.894 240.351 203.748 240.343C203.602 240.335 203.455 240.355 203.317 240.404C203.317 240.404 192.358 243.937 179.464 241.742C173.172 240.671 166.781 239.192 161.511 235.985C160.611 235.437 159.214 234.086 158.13 232.901C157.046 231.717 156.234 230.699 156.234 230.699C156.145 230.583 156.033 230.486 155.905 230.414C155.777 230.342 155.636 230.295 155.49 230.277Z" fill="#EFF4F9"/>
<path fill-rule="evenodd" clip-rule="evenodd" d="M203.939 246.812C203.657 246.772 203.37 246.843 203.141 247.008C203.141 247.008 202.565 247.409 201.826 247.869C201.086 248.329 200.152 248.848 199.661 249.02C196.759 250.039 193.565 250.432 190.401 250.469C187.697 250.501 181.644 249.29 181.644 249.29C181.502 249.26 181.356 249.259 181.215 249.285C181.073 249.311 180.938 249.365 180.817 249.443C180.697 249.52 180.593 249.621 180.512 249.739C180.431 249.856 180.375 249.988 180.346 250.128C180.316 250.267 180.316 250.411 180.343 250.551C180.37 250.691 180.425 250.825 180.505 250.944C180.584 251.063 180.687 251.166 180.806 251.246C180.926 251.327 181.06 251.383 181.202 251.413C181.202 251.413 187.094 252.679 190.439 252.639C193.77 252.601 197.198 252.191 200.406 251.064C201.275 250.758 202.212 250.204 203.005 249.711C203.798 249.217 204.414 248.785 204.414 248.785C204.597 248.661 204.737 248.486 204.816 248.283C204.895 248.079 204.91 247.856 204.859 247.643C204.807 247.43 204.692 247.237 204.528 247.089C204.363 246.942 204.158 246.846 203.938 246.816L203.939 246.812Z" fill="#EFF4F9"/>
<path fill-rule="evenodd" clip-rule="evenodd" d="M201.406 255.879C201.234 255.854 201.06 255.868 200.896 255.922C200.896 255.922 194.735 257.769 191.877 258.05C189.961 258.239 185.44 257.821 185.44 257.821C185.15 257.791 184.86 257.877 184.635 258.059C184.409 258.241 184.267 258.504 184.239 258.79C184.211 259.076 184.299 259.363 184.484 259.586C184.67 259.809 184.937 259.951 185.227 259.98C185.227 259.98 189.603 260.453 192.105 260.207C195.549 259.868 201.559 257.994 201.559 257.994C201.799 257.925 202.007 257.777 202.15 257.574C202.293 257.372 202.361 257.127 202.343 256.88C202.325 256.634 202.222 256.4 202.052 256.218C201.881 256.036 201.653 255.916 201.406 255.879Z" fill="#EFF4F9"/>
<path fill-rule="evenodd" clip-rule="evenodd" d="M180.984 228.597C178.991 228.261 176.44 227.845 173.984 227.591C171.527 227.335 169.202 227.216 167.447 227.554C164.104 228.198 162.182 230.2 162.182 230.2C162.083 230.305 162.006 230.428 161.955 230.562C161.905 230.697 161.882 230.84 161.888 230.983C161.894 231.127 161.928 231.268 161.99 231.398C162.051 231.528 162.138 231.646 162.246 231.743C162.246 231.743 166.565 235.695 170.876 237.428C175.104 239.129 182.331 240.463 186.92 240.374C191.602 240.284 197.19 238.083 197.19 238.083C197.352 238.02 197.496 237.921 197.61 237.792C197.725 237.664 197.807 237.51 197.85 237.344C197.892 237.178 197.894 237.004 197.855 236.836C197.817 236.669 197.738 236.512 197.626 236.38C197.626 236.38 194.925 233.08 191.914 231.502C188.988 229.969 184.962 229.274 180.988 228.597L180.984 228.597ZM180.623 230.734C184.581 231.409 188.485 232.166 190.89 233.418C192.602 234.316 193.722 235.674 194.62 236.629C192.817 237.228 189.779 238.15 186.868 238.206C182.788 238.285 175.456 236.932 171.698 235.421C168.884 234.289 166.279 232.227 164.944 231.122C165.508 230.659 165.955 230.053 167.877 229.683C169.134 229.441 171.393 229.503 173.763 229.749C176.132 229.996 178.648 230.397 180.623 230.734Z" fill="#EFF4F9"/>
<path fill-rule="evenodd" clip-rule="evenodd" d="M172.302 217.634L170.122 217.892L172.506 236.899L174.686 236.641L172.302 217.634Z" fill="#EFF4F9"/>
<path fill-rule="evenodd" clip-rule="evenodd" d="M202.124 217.727C201.989 217.706 201.852 217.711 201.72 217.74L191.866 219.757C191.683 219.795 191.513 219.878 191.372 219.999C191.231 220.12 191.124 220.274 191.061 220.447L184.36 238.719C184.311 238.853 184.289 238.995 184.296 239.138C184.303 239.28 184.338 239.42 184.399 239.549C184.523 239.81 184.747 240.012 185.022 240.111C185.158 240.16 185.302 240.182 185.446 240.176C185.59 240.17 185.732 240.136 185.862 240.076C186.126 239.955 186.33 239.735 186.429 239.465L192.92 221.757L202.176 219.865C202.432 219.818 202.661 219.682 202.824 219.483C202.987 219.285 203.073 219.035 203.067 218.778C203.061 218.522 202.962 218.275 202.79 218.083C202.617 217.89 202.381 217.764 202.124 217.727Z" fill="#EFF4F9"/>
<path fill-rule="evenodd" clip-rule="evenodd" d="M171.147 210.524C170.993 210.502 170.837 210.513 170.688 210.555C170.539 210.597 170.401 210.67 170.283 210.769L161.835 217.786C161.659 217.934 161.534 218.133 161.48 218.355C161.425 218.577 161.443 218.811 161.532 219.023C161.62 219.235 161.774 219.415 161.971 219.536C162.169 219.657 162.4 219.713 162.631 219.697L180.664 218.389C180.896 218.373 181.117 218.283 181.293 218.134C181.47 217.985 181.594 217.785 181.647 217.561C181.7 217.338 181.68 217.103 181.589 216.891C181.499 216.678 181.342 216.5 181.142 216.381L171.557 210.671C171.431 210.595 171.292 210.545 171.147 210.524ZM171.105 212.925L177.06 216.474L165.855 217.286L171.105 212.925Z" fill="#EFF4F9"/>
<path fill-rule="evenodd" clip-rule="evenodd" d="M170.82 207.605C170.649 207.582 170.475 207.598 170.312 207.652C170.149 207.707 170.002 207.799 169.882 207.921C169.762 208.043 169.673 208.191 169.622 208.353C169.571 208.515 169.559 208.687 169.588 208.855L170.008 211.571C170.028 211.714 170.076 211.851 170.15 211.976C170.224 212.1 170.322 212.209 170.438 212.296C170.555 212.383 170.688 212.446 170.83 212.482C170.971 212.518 171.118 212.525 171.263 212.504C171.407 212.483 171.545 212.434 171.67 212.36C171.794 212.286 171.902 212.187 171.988 212.071C172.073 211.955 172.134 211.823 172.168 211.683C172.201 211.543 172.205 211.397 172.181 211.255L171.76 208.539C171.728 208.304 171.619 208.085 171.449 207.917C171.279 207.748 171.058 207.639 170.82 207.605Z" fill="#EFF4F9"/>
<path fill-rule="evenodd" clip-rule="evenodd" d="M157.935 239.606C157.831 239.595 157.726 239.614 157.633 239.66L150.524 242.956C150.459 242.987 150.4 243.029 150.352 243.082C150.304 243.135 150.266 243.197 150.242 243.264C150.218 243.331 150.207 243.402 150.211 243.473C150.215 243.545 150.233 243.615 150.264 243.679C150.295 243.744 150.338 243.802 150.392 243.85C150.446 243.898 150.509 243.935 150.577 243.959C150.645 243.984 150.717 243.994 150.789 243.991C150.862 243.988 150.933 243.97 150.998 243.94L158.103 240.638C158.212 240.59 158.302 240.507 158.358 240.402C158.415 240.298 158.435 240.178 158.416 240.061C158.397 239.944 158.34 239.836 158.253 239.754C158.166 239.672 158.054 239.619 157.935 239.606Z" fill="#EFF4F9"/>
<path fill-rule="evenodd" clip-rule="evenodd" d="M159.591 242.337C159.487 242.331 159.383 242.354 159.291 242.404L151.121 246.681C151.054 246.712 150.993 246.756 150.943 246.81C150.894 246.865 150.856 246.93 150.832 246.999C150.809 247.069 150.8 247.143 150.806 247.216C150.812 247.29 150.834 247.361 150.869 247.427C150.904 247.492 150.952 247.549 151.011 247.596C151.069 247.642 151.137 247.676 151.209 247.696C151.281 247.715 151.356 247.721 151.43 247.711C151.504 247.701 151.575 247.676 151.639 247.638L159.809 243.362C159.916 243.308 160.001 243.221 160.053 243.114C160.104 243.007 160.119 242.886 160.094 242.77C160.07 242.654 160.007 242.549 159.916 242.47C159.825 242.392 159.711 242.345 159.591 242.337Z" fill="#EFF4F9"/>
<path fill-rule="evenodd" clip-rule="evenodd" d="M162.136 244.836C162.013 244.82 161.888 244.846 161.782 244.909L151.761 250.703C151.698 250.738 151.642 250.786 151.597 250.842C151.553 250.899 151.52 250.965 151.501 251.034C151.482 251.104 151.478 251.176 151.488 251.248C151.498 251.319 151.522 251.388 151.56 251.45C151.597 251.512 151.646 251.567 151.705 251.61C151.764 251.653 151.831 251.684 151.902 251.702C151.973 251.719 152.046 251.722 152.119 251.711C152.191 251.7 152.26 251.675 152.322 251.638L162.343 245.845C162.443 245.789 162.522 245.703 162.57 245.6C162.617 245.496 162.63 245.38 162.607 245.269C162.585 245.157 162.527 245.055 162.442 244.978C162.357 244.9 162.25 244.85 162.136 244.836Z" fill="#EFF4F9"/>
<path fill-rule="evenodd" clip-rule="evenodd" d="M163.809 248.151C163.686 248.137 163.561 248.164 163.455 248.229L153.08 254.345C153.015 254.381 152.959 254.428 152.914 254.485C152.868 254.542 152.835 254.608 152.816 254.678C152.797 254.748 152.793 254.821 152.803 254.893C152.814 254.965 152.839 255.034 152.876 255.097C152.914 255.159 152.965 255.214 153.024 255.257C153.084 255.3 153.151 255.331 153.223 255.347C153.295 255.364 153.369 255.367 153.442 255.355C153.514 255.343 153.583 255.316 153.645 255.277L164.021 249.16C164.122 249.104 164.201 249.017 164.249 248.913C164.296 248.809 164.309 248.693 164.286 248.581C164.262 248.469 164.204 248.367 164.118 248.29C164.033 248.212 163.925 248.165 163.809 248.151Z" fill="#EFF4F9"/>
<path fill-rule="evenodd" clip-rule="evenodd" d="M165.741 251.224C165.617 251.206 165.492 251.229 165.384 251.29L154.099 257.537C153.972 257.607 153.879 257.724 153.84 257.863C153.801 258.001 153.819 258.15 153.891 258.275C153.962 258.401 154.082 258.494 154.222 258.533C154.363 258.573 154.513 258.555 154.64 258.485L165.925 252.239C166.026 252.185 166.108 252.101 166.158 251.998C166.208 251.896 166.223 251.78 166.203 251.668C166.183 251.556 166.127 251.452 166.044 251.373C165.961 251.293 165.855 251.241 165.741 251.224Z" fill="#EFF4F9"/>
<path fill-rule="evenodd" clip-rule="evenodd" d="M167.431 254.934C167.326 254.921 167.22 254.938 167.126 254.982L155.718 260.235C155.653 260.265 155.594 260.307 155.546 260.36C155.497 260.412 155.46 260.474 155.435 260.541C155.411 260.608 155.4 260.679 155.404 260.75C155.407 260.821 155.425 260.891 155.456 260.955C155.487 261.02 155.53 261.078 155.583 261.126C155.637 261.174 155.699 261.211 155.767 261.236C155.835 261.26 155.907 261.271 155.979 261.268C156.052 261.265 156.122 261.248 156.187 261.218L167.595 255.965C167.704 255.917 167.793 255.834 167.849 255.73C167.906 255.626 167.926 255.507 167.908 255.39C167.889 255.274 167.833 255.166 167.747 255.084C167.66 255.001 167.55 254.948 167.431 254.934Z" fill="#EFF4F9"/>
<path fill-rule="evenodd" clip-rule="evenodd" d="M169.997 257.338C169.874 257.315 169.748 257.333 169.638 257.39L158.903 262.763C158.773 262.828 158.675 262.942 158.631 263.078C158.586 263.215 158.599 263.364 158.665 263.492C158.732 263.621 158.847 263.718 158.986 263.763C159.125 263.807 159.276 263.796 159.406 263.731L170.141 258.358C170.244 258.308 170.329 258.227 170.382 258.127C170.436 258.026 170.457 257.911 170.441 257.799C170.425 257.686 170.373 257.581 170.294 257.498C170.214 257.415 170.11 257.359 169.997 257.338Z" fill="#EFF4F9"/>
<path fill-rule="evenodd" clip-rule="evenodd" d="M172.52 259.833C172.398 259.81 172.271 259.829 172.161 259.886L160.59 265.496C160.524 265.526 160.465 265.569 160.416 265.623C160.368 265.676 160.33 265.738 160.306 265.806C160.283 265.874 160.273 265.946 160.277 266.018C160.282 266.09 160.301 266.16 160.334 266.225C160.366 266.289 160.411 266.347 160.466 266.394C160.521 266.442 160.585 266.478 160.655 266.501C160.724 266.523 160.797 266.532 160.87 266.527C160.943 266.521 161.013 266.502 161.078 266.469L172.651 260.855C172.755 260.806 172.84 260.726 172.896 260.627C172.951 260.527 172.973 260.412 172.958 260.299C172.944 260.186 172.894 260.08 172.815 259.997C172.736 259.913 172.633 259.856 172.52 259.833Z" fill="#EFF4F9"/>
<path fill-rule="evenodd" clip-rule="evenodd" d="M174.992 262.612C174.852 262.581 174.705 262.605 174.583 262.679L164.98 268.355C164.916 268.39 164.859 268.437 164.814 268.494C164.769 268.551 164.736 268.617 164.717 268.687C164.698 268.757 164.694 268.83 164.704 268.902C164.714 268.974 164.739 269.044 164.777 269.106C164.815 269.168 164.865 269.223 164.925 269.266C164.984 269.309 165.052 269.34 165.124 269.357C165.195 269.373 165.27 269.376 165.342 269.364C165.415 269.352 165.484 269.325 165.546 269.286L175.153 263.612C175.249 263.558 175.327 263.475 175.375 263.377C175.422 263.278 175.439 263.167 175.421 263.059C175.404 262.95 175.354 262.849 175.277 262.769C175.2 262.689 175.101 262.635 174.992 262.612Z" fill="#EFF4F9"/>
<path fill-rule="evenodd" clip-rule="evenodd" d="M178.022 265.783C177.881 265.766 177.738 265.803 177.624 265.888L170.371 271.107C170.313 271.149 170.264 271.202 170.226 271.262C170.189 271.323 170.164 271.39 170.153 271.461C170.142 271.531 170.145 271.603 170.162 271.672C170.18 271.741 170.21 271.807 170.253 271.864C170.296 271.922 170.349 271.971 170.411 272.008C170.473 272.045 170.541 272.07 170.612 272.081C170.684 272.092 170.757 272.09 170.827 272.073C170.897 272.057 170.963 272.027 171.021 271.985L178.274 266.766C178.365 266.703 178.434 266.614 178.472 266.512C178.511 266.409 178.517 266.297 178.49 266.191C178.463 266.084 178.403 265.988 178.32 265.916C178.236 265.843 178.133 265.797 178.022 265.783Z" fill="#EFF4F9"/>
<path fill-rule="evenodd" clip-rule="evenodd" d="M142.791 61.0664C142.655 61.0022 142.508 60.966 142.358 60.9598C142.208 60.9535 142.059 60.9774 141.92 61.03C141.92 61.03 136.452 63.0802 133.7 64.4144C132.059 65.2092 130.147 65.9393 128.552 67.3309C127.335 68.3929 126.179 69.7124 125.545 71.3446C124.949 72.881 125.004 74.479 125.09 75.8812C125.223 78.0386 126.312 81.5123 126.312 81.5123C126.353 81.6493 126.421 81.7772 126.512 81.8892C126.603 82.0011 126.715 82.0948 126.842 82.1647C126.969 82.2346 127.109 82.2793 127.252 82.2965C127.396 82.3136 127.541 82.3028 127.68 82.2646C127.818 82.2265 127.947 82.1618 128.059 82.0741C128.171 81.9864 128.265 81.8777 128.333 81.7538C128.402 81.63 128.446 81.4935 128.461 81.3524C128.476 81.2112 128.462 81.0682 128.421 80.9312C128.421 80.9312 127.377 77.2869 127.285 75.7865C127.202 74.4489 127.204 73.158 127.597 72.1468C128.051 70.9783 128.97 69.8832 130.026 68.9616C131.248 67.8956 132.954 67.2016 134.696 66.3575C136.864 65.307 140.454 63.9547 141.626 63.5079C142.016 64.6532 143.093 67.7383 143.481 69.7283C143.858 71.666 144.239 73.5414 144.028 75.2381C143.827 76.8619 143.272 78.4882 142.394 79.8211C141.839 80.6624 140.995 81.4019 140.057 81.9868C139.656 82.2375 138.718 82.6183 137.939 82.8847C137.159 83.1509 136.523 83.3288 136.523 83.3288C136.384 83.3676 136.255 83.433 136.143 83.5212C136.031 83.6094 135.939 83.7189 135.87 83.8431C135.802 83.9673 135.759 84.1039 135.745 84.2453C135.73 84.3866 135.744 84.5297 135.786 84.6667C135.828 84.8036 135.896 84.9318 135.988 85.0434C136.079 85.1551 136.192 85.2483 136.319 85.3177C136.447 85.3871 136.586 85.4312 136.73 85.4478C136.874 85.4644 137.019 85.4529 137.158 85.4141C137.158 85.4141 137.849 85.2158 138.69 84.9285C139.532 84.641 140.506 84.2881 141.256 83.82C142.386 83.1152 143.468 82.2025 144.245 81.023C145.329 79.3771 145.968 77.4594 146.206 75.54C146.476 73.3655 146.011 71.2723 145.638 69.3608C145.1 66.6009 143.364 61.7077 143.364 61.7077C143.316 61.5697 143.24 61.4422 143.142 61.3326C143.043 61.2231 142.923 61.1341 142.79 61.0705L142.791 61.0664Z" fill="#EFF4F9"/>
<path fill-rule="evenodd" clip-rule="evenodd" d="M149.118 53.9576C146.722 52.3475 143.739 52.6097 141.37 52.8178C139.159 53.0121 136.851 53.6155 134.936 54.909C132.792 56.3573 131.265 58.501 130.154 60.6566C129.496 61.9351 129.049 63.7128 128.714 65.2361C128.379 66.7594 128.185 68.0073 128.185 68.0073L130.356 68.3701C130.356 68.3701 130.543 67.1801 130.863 65.7269C131.182 64.2735 131.668 62.536 132.119 61.6599C133.127 59.7039 134.487 57.8586 136.2 56.7013C137.7 55.6884 139.665 55.1437 141.604 54.9733C143.924 54.7694 146.371 54.7122 147.899 55.7388C149.277 56.6648 150.201 58.6605 150.574 60.5473C150.963 62.5121 150.571 64.7582 149.741 66.6907C149.186 67.9807 147.674 69.0611 146.444 70.7126C145.689 71.7267 144.402 73.6843 144.402 73.6843L146.255 74.8823C146.255 74.8823 147.57 72.89 148.227 72.0086L148.222 72.0068C149.158 70.7503 150.891 69.6013 151.766 67.5642C152.731 65.3199 153.233 62.6935 152.733 60.1664C152.291 57.9354 151.276 55.408 149.118 53.9576Z" fill="#EFF4F9"/>
<path fill-rule="evenodd" clip-rule="evenodd" d="M125.52 75.8645C125.52 75.8645 121.557 81.8055 120.121 85.3911C119.326 87.3746 117.996 89.7422 118.445 92.423L118.441 92.4213C118.866 94.9589 120.389 97.4435 122.61 98.9012C124.708 100.278 127.371 100.511 129.666 100.1C132.279 99.6327 134.65 98.1451 136.355 96.2622C138.142 94.2901 138.562 91.7305 139.324 89.7599C140.146 87.634 141.379 83.5018 141.379 83.5018L139.269 82.8577C139.269 82.8577 138.013 87.0427 137.27 88.9618C136.405 91.198 135.951 93.429 134.703 94.8066C133.288 96.3688 131.268 97.6066 129.243 97.9692C127.408 98.2976 125.242 98.0472 123.81 97.1078C122.205 96.0549 120.932 94.0124 120.613 92.1061C120.324 90.3799 121.312 88.351 122.169 86.2146C123.393 83.1575 127.371 77.0666 127.371 77.0666L125.52 75.8645Z" fill="#EFF4F9"/>
<path fill-rule="evenodd" clip-rule="evenodd" d="M143.618 58.8131C143.349 58.6963 143.047 58.6882 142.776 58.7909C142.506 58.8936 142.29 59.0986 142.176 59.3607L141.152 61.6157C141.093 61.7445 141.061 61.8837 141.057 62.0257C141.053 62.1677 141.078 62.3096 141.13 62.4431C141.181 62.5766 141.259 62.6993 141.359 62.804C141.458 62.9087 141.577 62.9935 141.709 63.0534C141.841 63.1134 141.983 63.1472 142.127 63.1533C142.272 63.1594 142.415 63.1375 142.55 63.0888C142.685 63.0401 142.808 62.9656 142.913 62.8695C143.017 62.7734 143.102 62.6577 143.16 62.5288L144.186 60.27C144.247 60.1396 144.281 59.9977 144.286 59.8533C144.29 59.7088 144.265 59.5646 144.212 59.4289C144.159 59.2931 144.079 59.1686 143.977 59.063C143.875 58.9573 143.753 58.872 143.618 58.8131Z" fill="#EFF4F9"/>
<path fill-rule="evenodd" clip-rule="evenodd" d="M167.994 71.934C167.854 71.8772 167.704 71.8491 167.554 71.8513C167.404 71.8535 167.256 71.8862 167.12 71.9471C167.12 71.9471 162.37 74.0434 159.994 75.5465C158.348 76.5877 156.506 77.6858 155.11 79.3747C153.878 80.8654 152.921 82.6463 152.469 84.5642C152.145 85.9395 152.223 87.3522 152.486 88.6576C152.661 89.5244 153.073 90.4755 153.441 91.2848C153.81 92.0939 154.14 92.7326 154.14 92.7326C154.207 92.8599 154.298 92.9735 154.409 93.0667C154.52 93.1599 154.648 93.2309 154.786 93.2759C154.924 93.3209 155.069 93.3389 155.213 93.3288C155.357 93.3187 155.497 93.2807 155.625 93.2171C155.753 93.1534 155.867 93.0652 155.96 92.9576C156.053 92.8501 156.123 92.7254 156.167 92.5903C156.21 92.4553 156.226 92.3127 156.213 92.1707C156.2 92.0288 156.159 91.8904 156.093 91.7631C156.093 91.7631 155.785 91.1779 155.444 90.4284C155.102 89.6787 154.736 88.7356 154.642 88.2715C154.424 87.1882 154.382 86.0662 154.613 85.0853C154.98 83.532 155.782 82.0127 156.825 80.7516C157.914 79.4338 159.539 78.423 161.207 77.3676C162.921 76.2838 165.903 74.9491 167.004 74.4468C167.483 75.6057 168.964 79.1448 169.688 81.4422C170.27 83.2883 170.937 85.0057 171 86.6259C171.055 88.0267 170.889 89.4466 170.351 90.5786C169.885 91.558 168.948 92.446 167.918 93.304C166.764 94.2665 163.397 96.009 163.397 96.009C163.269 96.0732 163.156 96.1616 163.064 96.2694C162.971 96.3772 162.902 96.5021 162.859 96.6372C162.816 96.7723 162.801 96.915 162.814 97.0567C162.828 97.1985 162.869 97.3367 162.936 97.4636C163.004 97.5905 163.096 97.7033 163.207 97.796C163.318 97.8886 163.446 97.9592 163.584 98.0036C163.722 98.048 163.867 98.0653 164.011 98.0546C164.154 98.0439 164.294 98.0053 164.422 97.9411C164.422 97.9411 167.696 96.3487 169.356 94.9647C170.435 94.0651 171.635 93.0083 172.343 91.5203C173.095 89.9389 173.261 88.1927 173.198 86.5784C173.115 84.4633 172.333 82.5718 171.785 80.8332C170.866 77.9155 168.604 72.5319 168.604 72.5319C168.548 72.3973 168.465 72.2747 168.36 72.1713C168.256 72.068 168.132 71.986 167.995 71.9301L167.994 71.934Z" fill="#EFF4F9"/>
<path fill-rule="evenodd" clip-rule="evenodd" d="M168.805 62.4471C166.268 61.873 163.734 62.87 161.809 64.0802C159.627 65.4511 158.062 67.6187 157.092 69.8607C156.211 71.8957 156.565 73.9444 156.294 75.4873L156.29 75.4856C156.099 76.5678 155.553 78.8916 155.553 78.8916L157.696 79.4167C157.696 79.4167 158.236 77.1374 158.456 75.8922C158.812 73.8643 158.56 72.0227 159.117 70.7341C159.953 68.8037 161.317 66.9771 163.013 65.9112C164.641 64.8877 166.727 64.1895 168.346 64.5559C170.141 64.9625 171.779 66.7813 173.224 68.6083C174.431 70.1354 175.384 71.9388 175.676 73.7246C176.011 75.7651 175.602 78.0202 174.872 80.0959C174.544 81.0253 173.614 82.5711 172.776 83.8012C171.939 85.0311 171.202 85.9838 171.202 85.9838L172.956 87.3134C172.956 87.3134 173.73 86.3159 174.608 85.0267C175.486 83.7375 176.472 82.1925 176.95 80.8362C177.755 78.5487 178.266 75.9666 177.847 73.4133C177.473 71.1328 176.328 69.0406 174.952 67.2991C173.477 65.4335 171.62 63.0844 168.805 62.4471Z" fill="#EFF4F9"/>
<path fill-rule="evenodd" clip-rule="evenodd" d="M169.071 94.6451L166.927 94.1239C166.927 94.1239 165.228 101.198 163.845 104.186C162.879 106.276 162.082 108.387 160.628 109.362C159.023 110.438 156.664 110.914 154.796 110.47C153.131 110.073 151.462 108.67 150.441 107.11C149.315 105.389 148.828 103.07 148.993 100.969C149.138 99.1159 150.449 97.2536 151.482 95.0898C152.367 93.2321 154.549 89.4464 154.549 89.4464L152.631 88.3537C152.631 88.3537 150.47 92.0915 149.49 94.1484C148.579 96.0547 147.007 98.1174 146.799 100.77C146.6 103.303 147.146 106.048 148.599 108.269C149.876 110.22 151.873 111.997 154.314 112.578C156.899 113.192 159.751 112.594 161.888 111.161L161.884 111.159C164.142 109.646 164.951 107.053 165.847 105.114C167.469 101.608 169.07 94.649 169.07 94.649L169.071 94.6451Z" fill="#EFF4F9"/>
<path fill-rule="evenodd" clip-rule="evenodd" d="M169.018 69.7661C168.746 69.6597 168.444 69.6629 168.178 69.7753C167.912 69.8877 167.705 70.0999 167.6 70.3656L166.662 72.6619C166.554 72.9268 166.558 73.2249 166.673 73.4903C166.788 73.7558 167.005 73.9669 167.276 74.0775C167.547 74.1881 167.85 74.1891 168.118 74.08C168.385 73.9709 168.596 73.7606 168.704 73.4958L169.641 71.2036C169.698 71.0707 169.727 70.9274 169.726 70.7824C169.725 70.6375 169.695 70.4938 169.637 70.3596C169.579 70.2254 169.494 70.1037 169.388 70.0016C169.281 69.8995 169.155 69.82 169.018 69.7661Z" fill="#EFF4F9"/>
<path fill-rule="evenodd" clip-rule="evenodd" d="M126.974 82.3293C126.858 82.2854 126.73 82.2811 126.613 82.317L121.75 83.7464C121.611 83.7874 121.495 83.8814 121.428 84.0076C121.361 84.1339 121.348 84.2821 121.392 84.4196C121.436 84.5572 121.533 84.673 121.663 84.7413C121.792 84.8095 121.943 84.8249 122.082 84.7839L126.945 83.354C127.054 83.3226 127.151 83.2578 127.22 83.1689C127.29 83.08 127.329 82.9713 127.332 82.8583C127.335 82.7452 127.303 82.6335 127.238 82.5388C127.174 82.444 127.081 82.3702 126.974 82.3293Z" fill="#EFF4F9"/>
<path fill-rule="evenodd" clip-rule="evenodd" d="M127.015 84.2136C126.882 84.1608 126.734 84.1608 126.602 84.2138L120.203 86.7465C120.135 86.7721 120.074 86.8107 120.022 86.8603C119.969 86.9098 119.928 86.9693 119.9 87.0351C119.872 87.1009 119.857 87.1718 119.857 87.2437C119.857 87.3155 119.872 87.3869 119.9 87.4536C119.928 87.5203 119.97 87.5811 120.022 87.6322C120.074 87.6834 120.136 87.7239 120.204 87.7516C120.271 87.7793 120.344 87.7935 120.417 87.7934C120.49 87.7933 120.562 87.7788 120.629 87.7509L127.028 85.2182C127.129 85.1785 127.216 85.1096 127.276 85.0203C127.337 84.9309 127.369 84.8254 127.367 84.7172C127.366 84.609 127.332 84.5032 127.269 84.4134C127.206 84.3235 127.118 84.2542 127.015 84.2136Z" fill="#EFF4F9"/>
<path fill-rule="evenodd" clip-rule="evenodd" d="M126.802 86.6118C126.667 86.567 126.521 86.5745 126.394 86.6331L119.548 89.7022C119.416 89.7615 119.314 89.8703 119.265 90.0047C119.216 90.1392 119.223 90.2883 119.286 90.4192C119.348 90.5501 119.46 90.6519 119.598 90.7025C119.735 90.7532 119.886 90.7485 120.018 90.6893L126.861 87.6185C126.961 87.5747 127.045 87.5019 127.102 87.4096C127.159 87.3173 127.186 87.2098 127.18 87.1011C127.173 86.9925 127.134 86.8877 127.066 86.8004C126.999 86.7131 126.907 86.6474 126.802 86.6118Z" fill="#EFF4F9"/>
<path fill-rule="evenodd" clip-rule="evenodd" d="M126.609 89.0186C126.472 88.9752 126.324 88.9857 126.197 89.0478L119.697 92.055C119.63 92.0838 119.57 92.1254 119.52 92.1778C119.47 92.2302 119.431 92.2921 119.406 92.3599C119.381 92.4277 119.371 92.5 119.375 92.5724C119.379 92.6448 119.397 92.716 119.43 92.7816C119.462 92.8472 119.507 92.9059 119.563 92.9543C119.619 93.0027 119.683 93.0398 119.753 93.0634C119.823 93.0869 119.897 93.0964 119.971 93.0914C120.044 93.0864 120.115 93.0668 120.18 93.034L126.677 90.0248C126.777 89.9801 126.86 89.9066 126.916 89.8138C126.972 89.721 126.998 89.6133 126.991 89.5047C126.984 89.3961 126.943 89.2915 126.875 89.2048C126.807 89.1181 126.714 89.0532 126.609 89.0186Z" fill="#EFF4F9"/>
<path fill-rule="evenodd" clip-rule="evenodd" d="M126.824 90.7715C126.748 90.7443 126.667 90.7337 126.588 90.7404C126.508 90.7471 126.43 90.7711 126.361 90.8105L120.49 94.0891C120.428 94.1238 120.373 94.1704 120.329 94.2263C120.286 94.2822 120.254 94.3462 120.235 94.4147C120.217 94.4832 120.212 94.5548 120.222 94.6254C120.232 94.6961 120.255 94.7646 120.292 94.8266C120.328 94.8887 120.377 94.9432 120.434 94.9872C120.492 95.0312 120.557 95.064 120.627 95.0833C120.697 95.1026 120.77 95.1082 120.841 95.0998C120.913 95.0914 120.982 95.0691 121.044 95.0343L126.916 91.7558C127.008 91.706 127.083 91.6309 127.132 91.5393C127.181 91.4478 127.202 91.3438 127.193 91.2398C127.183 91.1358 127.143 91.0362 127.078 90.9532C127.012 90.8701 126.924 90.8071 126.824 90.7715Z" fill="#EFF4F9"/>
<path fill-rule="evenodd" clip-rule="evenodd" d="M126.938 93.2055C126.862 93.1794 126.782 93.17 126.702 93.1777C126.623 93.1854 126.546 93.21 126.478 93.2501L121.696 95.9618C121.633 95.9967 121.578 96.0437 121.534 96.0999C121.49 96.1561 121.458 96.2204 121.44 96.2893C121.422 96.3581 121.418 96.4301 121.428 96.501C121.438 96.5719 121.463 96.6404 121.5 96.7024C121.537 96.7645 121.586 96.8188 121.644 96.8624C121.702 96.906 121.768 96.9381 121.839 96.9565C121.909 96.975 121.983 96.9795 122.054 96.97C122.126 96.9605 122.195 96.937 122.257 96.901L127.035 94.1876C127.127 94.1371 127.201 94.0616 127.249 93.97C127.298 93.8784 127.318 93.7745 127.308 93.671C127.297 93.5674 127.257 93.4684 127.191 93.3859C127.126 93.3033 127.038 93.2407 126.938 93.2055Z" fill="#EFF4F9"/>
<path fill-rule="evenodd" clip-rule="evenodd" d="M127.006 95.5183C126.912 95.4848 126.812 95.4764 126.715 95.4944C126.618 95.5124 126.528 95.5558 126.455 95.6202L124.273 97.4813C124.164 97.5746 124.097 97.7074 124.089 97.8505C124.08 97.9937 124.129 98.1355 124.225 98.2447C124.322 98.3538 124.458 98.4215 124.604 98.4327C124.749 98.444 124.893 98.3979 125.002 98.3046L127.184 96.4436C127.258 96.3828 127.313 96.3038 127.345 96.2144C127.377 96.125 127.385 96.0284 127.367 95.9345C127.349 95.8406 127.306 95.7527 127.242 95.6796C127.179 95.6065 127.097 95.5509 127.006 95.5183Z" fill="#EFF4F9"/>
<path fill-rule="evenodd" clip-rule="evenodd" d="M140.011 55.937C139.878 55.8842 139.73 55.8842 139.598 55.9372L132.336 58.6756C132.268 58.7001 132.206 58.7377 132.153 58.7863C132.1 58.835 132.058 58.8938 132.028 58.9591C131.999 59.0244 131.983 59.0949 131.982 59.1667C131.981 59.2385 131.994 59.3101 132.022 59.3772C132.049 59.4443 132.089 59.5056 132.14 59.5576C132.191 59.6096 132.252 59.6513 132.32 59.6801C132.387 59.7089 132.459 59.7244 132.532 59.7255C132.605 59.7267 132.678 59.7132 132.745 59.6865L140.003 56.9463C140.107 56.9097 140.197 56.8428 140.26 56.7542C140.324 56.6656 140.359 56.5596 140.36 56.4502C140.361 56.3408 140.328 56.233 140.266 56.1413C140.203 56.0496 140.114 55.9787 140.011 55.937Z" fill="#EFF4F9"/>
<path fill-rule="evenodd" clip-rule="evenodd" d="M138.908 58.3965C138.836 58.3625 138.757 58.3442 138.677 58.3431C138.598 58.342 138.519 58.3579 138.447 58.3898L130.728 61.6651C130.662 61.6929 130.603 61.7334 130.553 61.7842C130.503 61.8349 130.464 61.895 130.439 61.961C130.413 62.0269 130.4 62.0976 130.402 62.1686C130.404 62.2397 130.42 62.31 130.45 62.3754C130.479 62.4408 130.521 62.4998 130.574 62.5496C130.626 62.5993 130.688 62.6386 130.755 62.6651C130.823 62.6916 130.895 62.7049 130.967 62.7041C131.039 62.7034 131.11 62.6887 131.176 62.6608L138.895 59.3855C138.993 59.346 139.076 59.2794 139.135 59.1933C139.195 59.1073 139.227 59.0055 139.229 58.9008C139.23 58.796 139.201 58.6925 139.144 58.603C139.087 58.5135 139.005 58.4418 138.908 58.3965Z" fill="#EFF4F9"/>
<path fill-rule="evenodd" clip-rule="evenodd" d="M137.692 61.1738C137.559 61.1178 137.411 61.1145 137.278 61.1646L130.816 63.4406C130.744 63.4603 130.677 63.4948 130.619 63.5414C130.561 63.5881 130.514 63.6461 130.48 63.7119C130.446 63.7777 130.426 63.8498 130.422 63.9239C130.418 63.998 130.43 64.0725 130.456 64.1425C130.482 64.2125 130.523 64.2765 130.575 64.3309C130.627 64.3852 130.69 64.4286 130.76 64.4582C130.83 64.4879 130.905 64.5034 130.98 64.5034C131.055 64.5035 131.13 64.4882 131.198 64.4586L137.66 62.1821C137.765 62.1478 137.857 62.0827 137.922 61.9956C137.988 61.9084 138.025 61.8035 138.028 61.6942C138.032 61.5849 138.002 61.4766 137.942 61.3836C137.881 61.2906 137.794 61.2178 137.692 61.1738Z" fill="#EFF4F9"/>
<path fill-rule="evenodd" clip-rule="evenodd" d="M154.7 94.2856C154.584 94.2417 154.457 94.2374 154.339 94.2733L149.476 95.7027C149.337 95.7437 149.222 95.8377 149.154 95.9639C149.087 96.0902 149.074 96.2383 149.118 96.3759C149.162 96.5135 149.259 96.6293 149.389 96.6976C149.518 96.7658 149.669 96.7812 149.808 96.7402L154.671 95.3103C154.781 95.2789 154.877 95.2141 154.947 95.1252C155.016 95.0363 155.055 94.9276 155.059 94.8146C155.062 94.7015 155.029 94.5898 154.964 94.4951C154.9 94.4003 154.808 94.3265 154.7 94.2856Z" fill="#EFF4F9"/>
<path fill-rule="evenodd" clip-rule="evenodd" d="M154.741 96.1699C154.608 96.1171 154.46 96.1171 154.328 96.1701L147.929 98.7028C147.862 98.7284 147.8 98.767 147.748 98.8166C147.696 98.8661 147.654 98.9256 147.626 98.9914C147.598 99.0572 147.583 99.1281 147.583 99.2C147.583 99.2718 147.598 99.3432 147.626 99.4099C147.655 99.4766 147.696 99.5374 147.748 99.5885C147.8 99.6397 147.862 99.6802 147.93 99.7079C147.998 99.7356 148.07 99.7498 148.143 99.7497C148.216 99.7496 148.288 99.7351 148.355 99.7072L154.754 97.1745C154.855 97.1348 154.942 97.0659 155.003 96.9766C155.063 96.8872 155.095 96.7817 155.094 96.6735C155.092 96.5653 155.058 96.4595 154.995 96.3697C154.932 96.2798 154.844 96.2104 154.741 96.1699Z" fill="#EFF4F9"/>
<path fill-rule="evenodd" clip-rule="evenodd" d="M154.528 98.5681C154.394 98.5233 154.247 98.5308 154.12 98.5894L147.274 101.658C147.209 101.688 147.15 101.73 147.102 101.782C147.053 101.833 147.016 101.894 146.991 101.961C146.942 102.095 146.949 102.245 147.012 102.375C147.074 102.506 147.186 102.608 147.324 102.659C147.461 102.71 147.613 102.705 147.745 102.646L154.587 99.5748C154.687 99.531 154.771 99.4582 154.828 99.3659C154.885 99.2736 154.912 99.1661 154.906 99.0574C154.899 98.9488 154.86 98.844 154.793 98.7567C154.725 98.6694 154.633 98.6037 154.528 98.5681Z" fill="#EFF4F9"/>
<path fill-rule="evenodd" clip-rule="evenodd" d="M154.335 100.975C154.198 100.932 154.051 100.942 153.923 101.004L147.423 104.011C147.356 104.04 147.296 104.082 147.246 104.134C147.196 104.187 147.157 104.248 147.132 104.316C147.108 104.384 147.097 104.456 147.101 104.529C147.105 104.601 147.124 104.672 147.156 104.738C147.188 104.804 147.234 104.862 147.289 104.911C147.345 104.959 147.41 104.996 147.48 105.02C147.55 105.043 147.623 105.053 147.697 105.048C147.77 105.043 147.842 105.023 147.907 104.99L154.403 101.981C154.503 101.936 154.586 101.863 154.642 101.77C154.698 101.677 154.724 101.57 154.717 101.461C154.71 101.352 154.669 101.248 154.601 101.161C154.533 101.074 154.44 101.009 154.335 100.975Z" fill="#EFF4F9"/>
<path fill-rule="evenodd" clip-rule="evenodd" d="M154.55 102.728C154.474 102.701 154.394 102.69 154.314 102.697C154.234 102.703 154.157 102.727 154.088 102.767L148.216 106.045C148.154 106.08 148.099 106.127 148.056 106.183C148.012 106.239 147.98 106.303 147.961 106.371C147.943 106.44 147.938 106.511 147.948 106.582C147.958 106.652 147.982 106.721 148.018 106.783C148.054 106.845 148.103 106.899 148.16 106.943C148.218 106.988 148.283 107.02 148.353 107.04C148.423 107.059 148.496 107.064 148.568 107.056C148.639 107.048 148.708 107.025 148.771 106.991L154.642 103.712C154.734 103.662 154.809 103.587 154.858 103.496C154.908 103.404 154.929 103.3 154.919 103.196C154.909 103.092 154.869 102.993 154.804 102.909C154.738 102.826 154.65 102.763 154.55 102.728Z" fill="#EFF4F9"/>
<path fill-rule="evenodd" clip-rule="evenodd" d="M154.664 105.162C154.588 105.136 154.508 105.126 154.428 105.134C154.349 105.142 154.272 105.166 154.204 105.206L149.422 107.918C149.359 107.953 149.304 108 149.26 108.056C149.216 108.112 149.185 108.177 149.166 108.246C149.148 108.314 149.144 108.386 149.154 108.457C149.164 108.528 149.189 108.597 149.226 108.659C149.263 108.721 149.312 108.775 149.37 108.819C149.428 108.862 149.495 108.894 149.565 108.913C149.636 108.931 149.709 108.936 149.781 108.926C149.852 108.917 149.921 108.893 149.983 108.857L154.762 106.144C154.853 106.093 154.927 106.018 154.976 105.926C155.024 105.835 155.044 105.731 155.034 105.627C155.024 105.524 154.983 105.425 154.918 105.342C154.852 105.26 154.764 105.197 154.664 105.162Z" fill="#EFF4F9"/>
<path fill-rule="evenodd" clip-rule="evenodd" d="M154.732 107.475C154.639 107.441 154.538 107.433 154.441 107.451C154.344 107.469 154.254 107.512 154.181 107.577L151.999 109.438C151.945 109.484 151.901 109.54 151.869 109.604C151.838 109.667 151.819 109.736 151.815 109.807C151.806 109.95 151.855 110.092 151.952 110.201C152.048 110.31 152.184 110.378 152.33 110.389C152.476 110.4 152.619 110.354 152.728 110.261L154.91 108.4C154.984 108.339 155.039 108.26 155.071 108.171C155.103 108.081 155.111 107.985 155.093 107.891C155.075 107.797 155.032 107.709 154.968 107.636C154.905 107.563 154.824 107.507 154.732 107.475Z" fill="#EFF4F9"/>
<path fill-rule="evenodd" clip-rule="evenodd" d="M241.741 13.8199C239.03 13.6107 236.221 14.203 233.812 15.4333C230.959 16.8907 228.318 19.1432 226.691 21.9973C225.058 24.8618 224.272 28.3434 224.649 31.6474C225.1 35.5975 226.742 39.7498 229.754 42.5406C232.992 45.5424 237.654 47.4983 242.141 47.189C246.696 46.8752 251.061 44.2279 253.924 40.8081C256.352 37.9087 257.424 33.9657 257.447 30.3066C257.462 26.1671 256.521 21.4213 253.469 18.2425C250.432 15.0781 245.763 14.1341 241.741 13.8242V13.8199ZM241.571 15.9952C245.365 16.2877 249.503 17.257 251.895 19.7497C254.331 22.2873 255.282 26.5074 255.269 30.2938C255.248 33.5266 254.253 37.0243 252.257 39.4076C249.748 42.404 245.779 44.7525 241.988 45.0138C238.252 45.2712 234.042 43.5473 231.234 40.9443C228.735 38.628 227.212 34.9176 226.81 31.4006C226.492 28.6174 227.179 25.5316 228.58 23.0742C229.944 20.681 232.275 18.6638 234.799 17.3744C236.844 16.33 239.296 15.8197 241.571 15.9952Z" fill="#EFF4F9"/>
<path fill-rule="evenodd" clip-rule="evenodd" d="M243.077 0.0574123C234.961 -0.501625 226.388 3.07315 220.48 8.54561C215.037 13.5879 211.996 21.204 211.168 28.4462C210.484 34.4341 211.918 40.8163 214.89 46.0268C217.838 51.1943 222.672 55.3245 227.899 57.9927C232.274 60.226 237.408 61.304 242.32 60.9256C249.79 60.3502 258.342 58.5639 263.777 52.9058C269.25 47.2073 271.027 38.5062 271 30.8726C270.959 24.1748 268.977 16.9534 264.598 11.7254C259.363 5.47708 251.314 0.629558 243.077 0.0618021V0.0574123ZM242.928 2.22852C250.403 2.74375 258.046 7.29679 262.926 13.1217C266.874 17.8337 268.784 24.6103 268.822 30.8811C268.848 38.1616 267.065 46.3369 262.207 51.3946C257.418 56.3811 249.393 58.1967 242.15 58.7546C237.674 59.0994 232.901 58.0992 228.89 56.0516C223.993 53.5517 219.468 49.6521 216.783 44.9456C214.044 40.1422 212.709 34.1599 213.334 28.6931C214.112 21.8841 217.03 14.7142 221.96 10.1462C227.437 5.07255 235.564 1.72113 242.928 2.22852Z" fill="#EFF4F9"/>
<path fill-rule="evenodd" clip-rule="evenodd" d="M228.439 4.00366L226.559 5.10617L233.637 17.2296L235.518 16.127L228.439 4.00366Z" fill="#EFF4F9"/>
<path fill-rule="evenodd" clip-rule="evenodd" d="M254.907 4.63367L247.42 15.9397L249.232 17.1444L256.719 5.83834L254.907 4.63367Z" fill="#EFF4F9"/>
<path fill-rule="evenodd" clip-rule="evenodd" d="M264.917 14.518L254.027 21.0564L255.15 22.9252L266.04 16.3867L264.917 14.518Z" fill="#EFF4F9"/>
<path fill-rule="evenodd" clip-rule="evenodd" d="M255.554 35.8999L254.439 37.7729L267.235 45.4011L268.349 43.5281L255.554 35.8999Z" fill="#EFF4F9"/>
<path fill-rule="evenodd" clip-rule="evenodd" d="M250.577 42.8725L248.526 43.609L253.427 57.2307L255.477 56.4943L250.577 42.8725Z" fill="#EFF4F9"/>
<path fill-rule="evenodd" clip-rule="evenodd" d="M232.412 43.6473L225.606 55.362L227.486 56.456L234.293 44.7413L232.412 43.6473Z" fill="#EFF4F9"/>
<path fill-rule="evenodd" clip-rule="evenodd" d="M227.376 36.5682L215.261 43.3791L216.324 45.2819L228.439 38.471L227.376 36.5682Z" fill="#EFF4F9"/>
<path fill-rule="evenodd" clip-rule="evenodd" d="M216.367 15.1267L215.329 17.0423L226.627 23.1721L227.665 21.2565L216.367 15.1267Z" fill="#EFF4F9"/>
<path fill-rule="evenodd" clip-rule="evenodd" d="M218.064 18.9877C217.94 18.9831 217.819 19.0209 217.719 19.0947L213.159 22.3639C213.042 22.4486 212.963 22.5764 212.94 22.7193C212.917 22.8622 212.951 23.0084 213.036 23.1259C213.12 23.2433 213.248 23.3222 213.391 23.3454C213.534 23.3685 213.68 23.334 213.797 23.2493L218.357 19.9801C218.452 19.9147 218.523 19.8214 218.561 19.7132C218.599 19.6051 218.602 19.4877 218.569 19.3778C218.537 19.2678 218.47 19.1711 218.38 19.1011C218.289 19.031 218.178 18.9913 218.064 18.9877Z" fill="#EFF4F9"/>
<path fill-rule="evenodd" clip-rule="evenodd" d="M218.8 20.6903C218.658 20.6879 218.52 20.741 218.417 20.8385L212.359 26.4235C212.307 26.4721 212.264 26.5307 212.234 26.5959C212.204 26.661 212.186 26.7314 212.183 26.8031C212.181 26.8749 212.192 26.9464 212.216 27.0138C212.241 27.0812 212.279 27.1432 212.327 27.1961C212.376 27.2489 212.435 27.2917 212.5 27.3219C212.565 27.3521 212.635 27.369 212.707 27.3719C212.779 27.3749 212.85 27.3637 212.918 27.3389C212.985 27.3142 213.047 27.2764 213.1 27.2277L219.157 21.6428C219.24 21.5697 219.299 21.4735 219.325 21.3664C219.352 21.2592 219.345 21.1462 219.307 21.0429C219.268 20.9395 219.199 20.8503 219.108 20.7872C219.018 20.724 218.91 20.6909 218.8 20.6903Z" fill="#EFF4F9"/>
<path fill-rule="evenodd" clip-rule="evenodd" d="M219.642 23.0743C219.52 23.0827 219.405 23.1318 219.315 23.2137L211.487 30.0929C211.43 30.139 211.383 30.1959 211.349 30.2605C211.315 30.3252 211.294 30.3962 211.287 30.4691C211.281 30.5421 211.289 30.6155 211.312 30.6852C211.335 30.7548 211.371 30.8191 211.419 30.8743C211.467 30.9295 211.526 30.9745 211.592 31.0065C211.657 31.0386 211.729 31.0571 211.802 31.0608C211.875 31.0645 211.948 31.0535 212.017 31.0284C212.086 31.0032 212.149 30.9643 212.202 30.9142L220.033 24.0355C220.122 23.9615 220.185 23.8609 220.213 23.7487C220.241 23.6365 220.233 23.5182 220.189 23.4111C220.146 23.3039 220.069 23.2135 219.971 23.1527C219.872 23.092 219.757 23.0651 219.642 23.0743Z" fill="#EFF4F9"/>
<path fill-rule="evenodd" clip-rule="evenodd" d="M220.097 25.7304C219.956 25.7267 219.819 25.7782 219.714 25.8741L212.023 32.8212C211.916 32.9183 211.852 33.0542 211.845 33.1987C211.838 33.3432 211.888 33.4844 211.985 33.5916C212.082 33.6989 212.218 33.7632 212.362 33.7704C212.506 33.7776 212.648 33.727 212.755 33.63L220.446 26.6828C220.528 26.6103 220.587 26.5146 220.614 26.4083C220.641 26.3019 220.635 26.1899 220.597 26.0869C220.56 25.9839 220.492 25.8947 220.402 25.831C220.313 25.7672 220.207 25.7327 220.097 25.7304Z" fill="#EFF4F9"/>
<path fill-rule="evenodd" clip-rule="evenodd" d="M220.871 28.3866C220.75 28.3939 220.635 28.4415 220.544 28.5218L212.24 35.6732C212.184 35.7194 212.138 35.7761 212.105 35.8403C212.071 35.9045 212.051 35.9748 212.045 36.047C212.039 36.1192 212.047 36.192 212.069 36.2609C212.092 36.3298 212.127 36.3936 212.175 36.4485C212.222 36.5034 212.28 36.5484 212.344 36.5807C212.409 36.613 212.48 36.6321 212.552 36.6368C212.624 36.6415 212.697 36.6318 212.765 36.6081C212.834 36.5844 212.897 36.5474 212.951 36.499L221.254 29.3476C221.342 29.274 221.405 29.1745 221.433 29.0632C221.461 28.9519 221.453 28.8346 221.411 28.728C221.369 28.6213 221.294 28.5306 221.197 28.4691C221.1 28.4076 220.986 28.3795 220.871 28.3866Z" fill="#EFF4F9"/>
<path fill-rule="evenodd" clip-rule="evenodd" d="M221.824 31.4515C221.702 31.4578 221.585 31.5055 221.493 31.5867L213.121 38.8062C213.011 38.9011 212.944 39.0355 212.934 39.18C212.923 39.3245 212.971 39.4669 213.066 39.5764C213.16 39.6859 213.295 39.7533 213.439 39.7637C213.583 39.7741 213.726 39.7268 213.835 39.632L222.207 32.4125C222.295 32.3389 222.358 32.2391 222.386 32.1278C222.414 32.0165 222.406 31.8992 222.364 31.7926C222.321 31.6859 222.246 31.5955 222.15 31.534C222.053 31.4725 221.939 31.4444 221.824 31.4515Z" fill="#EFF4F9"/>
<path fill-rule="evenodd" clip-rule="evenodd" d="M222.445 34.857C222.323 34.8627 222.206 34.9093 222.114 34.9897L214.15 41.6644C214.095 41.7102 214.05 41.7667 214.016 41.8302C213.983 41.8936 213.963 41.9629 213.956 42.0342C213.95 42.1056 213.957 42.1773 213.979 42.2457C214 42.3141 214.034 42.3777 214.08 42.4328C214.126 42.4878 214.182 42.5335 214.246 42.5669C214.309 42.6002 214.378 42.6205 214.45 42.627C214.521 42.6335 214.593 42.6259 214.661 42.6046C214.729 42.5833 214.793 42.5489 214.848 42.503L222.811 35.8283C222.901 35.7565 222.966 35.658 222.997 35.5468C223.028 35.4357 223.022 35.3176 222.982 35.2098C222.941 35.1019 222.867 35.0096 222.771 34.9464C222.674 34.8831 222.561 34.8514 222.445 34.857Z" fill="#EFF4F9"/>
<path fill-rule="evenodd" clip-rule="evenodd" d="M270.613 302.025C269.011 302.054 267.709 302.183 267.709 302.183C267.453 302.208 267.214 302.322 267.032 302.505C266.849 302.688 266.735 302.929 266.708 303.188C266.708 303.188 266.601 304.227 266.346 305.471C266.092 306.715 265.622 308.175 265.241 308.71C264.374 309.929 262.665 310.717 260.913 311.602C259.638 312.245 256.241 313.215 256.241 313.215H256.254C256.017 313.277 255.807 313.417 255.656 313.612C255.504 313.807 255.421 314.047 255.418 314.295C255.418 314.295 255.456 322.198 255.418 326.125C255.349 333.344 255 347.833 255 347.833C254.997 347.984 255.023 348.133 255.078 348.274C255.133 348.414 255.215 348.542 255.319 348.649C255.423 348.757 255.548 348.843 255.685 348.901C255.823 348.959 255.97 348.988 256.119 348.988L283.705 348.848C283.996 348.847 284.275 348.73 284.483 348.524C284.69 348.317 284.81 348.036 284.815 347.741C284.815 347.741 285.231 325.508 284.815 315.795C284.693 312.946 284.157 309.796 282.377 307.288C280.712 304.941 278.14 303.37 275.555 302.501C274.091 302.009 272.216 301.979 270.613 302.008L270.613 302.025ZM270.652 304.282C272.157 304.255 273.976 304.367 274.849 304.661C277.082 305.411 279.27 306.793 280.566 308.619C281.942 310.558 282.474 313.287 282.586 315.909C282.978 325.078 282.612 345.161 282.586 346.613L257.251 346.746C257.285 345.343 257.581 333.042 257.647 326.166C257.683 322.466 257.652 316.062 257.647 315.112C258.433 314.895 260.396 314.388 261.905 313.627C263.565 312.789 265.691 311.948 267.052 310.034C267.882 308.867 268.249 307.293 268.528 305.931C268.7 305.089 268.711 304.839 268.771 304.384C269.232 304.346 269.614 304.3 270.652 304.282Z" fill="#EFF4F9"/>
<path fill-rule="evenodd" clip-rule="evenodd" d="M272.237 347.732L271.776 363.371L268.031 363.657L267.622 347.737L265.393 347.793L265.837 364.899C265.841 365.052 265.875 365.203 265.938 365.342C266.001 365.481 266.091 365.605 266.203 365.708C266.315 365.811 266.447 365.889 266.589 365.939C266.732 365.988 266.884 366.008 267.034 365.997L272.942 365.547C273.218 365.527 273.475 365.403 273.666 365.202C273.857 365 273.966 364.733 273.974 364.454L274.466 347.798L272.237 347.732Z" fill="#EFF4F9"/>
<path fill-rule="evenodd" clip-rule="evenodd" d="M282.752 316.103C282.752 316.103 282.494 316.621 282.116 317.196C281.738 317.771 281.153 318.357 281.058 318.404H281.049C281.023 318.426 280.532 318.403 279.813 318.223C279.453 318.133 279.052 318.025 278.572 318.016C278.092 318.016 277.451 318.153 276.991 318.619C275.494 320.133 275.397 322.181 275.498 323.988C275.599 325.795 275.85 327.536 275.576 328.801C275.321 329.98 275.205 330.931 274.858 331.327C274.33 331.929 273.427 332.379 273.038 332.305C272.541 332.213 271.782 331.346 271.431 330.458C271.177 329.813 271.235 328.972 271.397 327.92C271.558 326.867 271.823 325.644 271.558 324.31C271.374 323.387 271.203 322.007 270.06 321.052C268.754 319.957 266.885 319.393 265.149 320.012C263.522 320.593 262.957 322.169 262.497 323.12C262.061 324.022 262.078 324.884 262.032 325.539C261.985 326.195 261.897 326.579 261.74 326.769C261.263 327.345 260.262 327.798 259.689 327.717C259.615 327.717 258.853 327.243 258.318 326.69C257.782 326.137 257.386 325.601 257.386 325.601L255.597 326.946C255.597 326.946 256.067 327.593 256.724 328.272C257.381 328.952 258.138 329.768 259.367 329.947H259.371C261.002 330.185 262.495 329.369 263.447 328.219C264.132 327.391 264.205 326.429 264.256 325.698C264.308 324.967 264.359 324.402 264.5 324.111C264.984 323.11 265.491 322.283 265.889 322.141C266.619 321.881 267.928 322.191 268.641 322.789C268.94 323.039 269.187 323.816 269.372 324.751C269.519 325.491 269.364 326.456 269.194 327.567C269.023 328.679 268.839 329.973 269.359 331.292C269.874 332.596 270.833 334.186 272.629 334.523C274.304 334.838 275.661 333.808 276.526 332.821C277.573 331.626 277.559 330.179 277.753 329.282C278.163 327.391 277.814 325.488 277.723 323.856C277.633 322.252 277.771 321.099 278.554 320.273C278.684 320.273 278.949 320.327 279.277 320.41C279.95 320.577 280.926 320.976 282.029 320.433C282.996 319.96 283.512 319.144 283.971 318.445C284.43 317.744 284.741 317.114 284.741 317.114L282.752 316.1L282.752 316.103Z" fill="#EFF4F9"/>
<path fill-rule="evenodd" clip-rule="evenodd" d="M260.538 331.653C260.395 331.664 260.26 331.73 260.164 331.838L257.517 334.73C257.416 334.84 257.363 334.985 257.369 335.135C257.375 335.285 257.439 335.426 257.547 335.528C257.656 335.629 257.8 335.683 257.948 335.677C258.095 335.672 258.235 335.607 258.335 335.497L260.982 332.605C261.06 332.523 261.111 332.418 261.129 332.306C261.147 332.193 261.131 332.078 261.083 331.975C261.035 331.872 260.957 331.786 260.86 331.729C260.763 331.671 260.651 331.645 260.538 331.653Z" fill="#EFF4F9"/>
<path fill-rule="evenodd" clip-rule="evenodd" d="M261.165 333.487C261.021 333.498 260.887 333.566 260.791 333.676L256.96 337.908C256.904 337.961 256.861 338.025 256.831 338.096C256.801 338.168 256.786 338.244 256.787 338.321C256.788 338.398 256.804 338.475 256.835 338.545C256.866 338.616 256.911 338.679 256.967 338.731C257.023 338.783 257.089 338.823 257.161 338.849C257.233 338.874 257.309 338.885 257.386 338.879C257.462 338.873 257.536 338.852 257.603 338.816C257.671 338.78 257.73 338.731 257.778 338.671L261.609 334.439C261.687 334.357 261.738 334.252 261.756 334.14C261.774 334.027 261.758 333.912 261.71 333.809C261.662 333.706 261.584 333.62 261.487 333.563C261.39 333.505 261.278 333.479 261.165 333.487Z" fill="#EFF4F9"/>
<path fill-rule="evenodd" clip-rule="evenodd" d="M261.945 335.885C261.801 335.891 261.665 335.955 261.566 336.061L256.62 341.279C256.568 341.332 256.526 341.395 256.498 341.465C256.47 341.534 256.456 341.608 256.456 341.683C256.457 341.758 256.472 341.832 256.502 341.901C256.531 341.97 256.573 342.032 256.626 342.084C256.68 342.136 256.742 342.177 256.811 342.204C256.88 342.232 256.954 342.245 257.028 342.243C257.102 342.241 257.175 342.224 257.242 342.193C257.31 342.163 257.371 342.119 257.421 342.064L262.367 336.845C262.446 336.764 262.499 336.661 262.519 336.55C262.539 336.438 262.526 336.323 262.48 336.219C262.435 336.115 262.359 336.027 262.263 335.968C262.168 335.908 262.057 335.879 261.945 335.885Z" fill="#EFF4F9"/>
<path fill-rule="evenodd" clip-rule="evenodd" d="M262.363 338C262.219 338.007 262.083 338.07 261.984 338.176L255.993 344.453C255.942 344.506 255.901 344.569 255.874 344.638C255.847 344.707 255.834 344.781 255.835 344.855C255.836 344.929 255.851 345.003 255.88 345.071C255.91 345.139 255.952 345.201 256.004 345.252C256.057 345.304 256.119 345.345 256.188 345.372C256.256 345.399 256.329 345.412 256.402 345.411C256.476 345.41 256.548 345.394 256.615 345.364C256.683 345.334 256.743 345.291 256.794 345.237L262.785 338.961C262.864 338.88 262.917 338.777 262.937 338.665C262.957 338.553 262.944 338.438 262.898 338.334C262.853 338.231 262.777 338.143 262.681 338.083C262.586 338.024 262.475 337.995 262.363 338Z" fill="#EFF4F9"/>
<path fill-rule="evenodd" clip-rule="evenodd" d="M262.998 340.398C262.853 340.403 262.716 340.464 262.615 340.57L256.276 346.987C256.222 347.039 256.18 347.101 256.15 347.17C256.121 347.239 256.105 347.313 256.104 347.389C256.103 347.464 256.117 347.538 256.146 347.608C256.174 347.677 256.215 347.741 256.267 347.794C256.32 347.847 256.382 347.889 256.451 347.917C256.52 347.946 256.593 347.96 256.668 347.959C256.742 347.958 256.815 347.942 256.883 347.912C256.951 347.883 257.013 347.839 257.064 347.785L263.403 341.367C263.484 341.288 263.539 341.186 263.562 341.075C263.584 340.963 263.573 340.847 263.529 340.742C263.485 340.637 263.411 340.548 263.316 340.487C263.222 340.425 263.111 340.394 262.998 340.398Z" fill="#EFF4F9"/>
<path fill-rule="evenodd" clip-rule="evenodd" d="M263.734 342.232C263.591 342.245 263.458 342.315 263.364 342.426L259.184 347.15C259.128 347.204 259.083 347.269 259.052 347.341C259.022 347.413 259.006 347.491 259.007 347.569C259.008 347.648 259.025 347.725 259.057 347.796C259.089 347.868 259.135 347.932 259.193 347.984C259.25 348.036 259.318 348.076 259.392 348.1C259.465 348.124 259.543 348.133 259.62 348.125C259.697 348.117 259.772 348.093 259.839 348.054C259.907 348.015 259.965 347.963 260.012 347.9L264.191 343.175C264.267 343.091 264.316 342.986 264.332 342.874C264.348 342.762 264.33 342.647 264.28 342.546C264.231 342.444 264.152 342.359 264.055 342.303C263.958 342.247 263.846 342.222 263.734 342.232Z" fill="#EFF4F9"/>
<path fill-rule="evenodd" clip-rule="evenodd" d="M265.049 343.854C264.905 343.869 264.772 343.94 264.679 344.052L262.032 347.155C261.935 347.269 261.886 347.416 261.897 347.566C261.907 347.716 261.976 347.855 262.088 347.953C262.2 348.051 262.346 348.1 262.494 348.089C262.642 348.079 262.779 348.009 262.876 347.896L265.524 344.793C265.599 344.708 265.648 344.601 265.662 344.488C265.677 344.375 265.657 344.26 265.606 344.158C265.554 344.056 265.474 343.972 265.374 343.918C265.275 343.864 265.161 343.841 265.049 343.854Z" fill="#EFF4F9"/>
<path fill-rule="evenodd" clip-rule="evenodd" d="M35.629 319.776C32.025 321.081 29.7132 324.554 28.2373 327.692C26.7326 330.891 25.9699 334.75 26.8154 338.322C27.8904 342.859 30.4933 347.816 34.9151 350.032L34.9113 350.034C40.1131 352.642 47.1602 352.427 52.1116 349.321C56.7065 346.439 59.5056 340.661 59.6185 335.336C59.7235 330.392 57.2866 325.053 53.2413 322.122C48.3658 318.588 41.2608 317.736 35.629 319.776ZM36.3974 321.901C41.2425 320.146 47.7698 320.947 51.9158 323.952C55.2251 326.35 57.4495 331.153 57.3617 335.289C57.2653 339.827 54.6722 345.045 50.9094 347.406C46.7647 350.005 40.3206 350.221 35.9252 348.017C32.4287 346.265 29.9792 341.887 29.0124 337.807C28.3252 334.904 28.9554 331.484 30.2832 328.661C31.6355 325.785 33.7539 322.862 36.3996 321.904L36.3974 321.901Z" fill="#EFF4F9"/>
<path fill-rule="evenodd" clip-rule="evenodd" d="M36.0488 340.975C35.898 341.068 35.7713 341.195 35.6787 341.346C35.5861 341.497 35.5303 341.667 35.5157 341.844C35.5012 342.02 35.5284 342.198 35.5951 342.362C35.6618 342.526 35.7661 342.672 35.8996 342.788C37.5754 344.299 39.8755 344.965 42.0564 345.068C44.1743 345.169 46.7606 344.945 48.6915 343.362C51.6158 340.965 53.499 337.039 53.2308 333.389C53.2088 333.09 53.0691 332.812 52.8424 332.616C52.6157 332.42 52.3205 332.322 52.0219 332.344C51.7233 332.366 51.4457 332.505 51.2501 332.732C51.0545 332.959 50.9569 333.254 50.9788 333.553C51.1777 336.257 49.584 339.711 47.2604 341.615C46.0612 342.598 43.9996 342.898 42.163 342.81C40.3853 342.726 38.5413 342.131 37.4102 341.111C37.2293 340.943 36.9982 340.838 36.7523 340.813C36.5064 340.789 36.2592 340.845 36.0488 340.975Z" fill="#EFF4F9"/>
<path fill-rule="evenodd" clip-rule="evenodd" d="M44.4973 326.757C44.8281 326.506 45.3428 326.452 45.7325 326.597C46.095 326.731 46.4129 327.086 46.5074 327.461C46.5808 327.756 46.4702 328.099 46.2931 328.345C45.9818 328.777 45.4681 329.263 44.9386 329.195C44.4462 329.132 44.0029 328.6 43.916 328.11C43.8298 327.627 44.1058 327.053 44.4973 326.757Z" fill="#EFF4F9"/>
<path fill-rule="evenodd" clip-rule="evenodd" d="M36.2861 334.527C36.6688 334.366 36.9733 333.947 37.0426 333.537C37.1074 333.156 36.9592 332.704 36.6814 332.434C36.4634 332.224 36.1107 332.148 35.8093 332.178C35.2789 332.231 34.6016 332.433 34.3961 332.926C34.2044 333.384 34.4435 334.034 34.8236 334.354C35.1992 334.67 35.834 334.718 36.2861 334.527Z" fill="#EFF4F9"/>
<path fill-rule="evenodd" clip-rule="evenodd" d="M27.1285 307.839C26.8767 308 26.6993 308.255 26.6351 308.547C26.5709 308.839 26.6252 309.145 26.7861 309.397L30.4641 315.344C30.5417 315.471 30.6436 315.582 30.7639 315.669C30.8842 315.757 31.0206 315.82 31.1652 315.854C31.3098 315.889 31.4598 315.895 31.6066 315.871C31.7534 315.848 31.8941 315.796 32.0207 315.718C32.1472 315.64 32.2571 315.537 32.3439 315.417C32.4308 315.296 32.493 315.159 32.5269 315.014C32.5609 314.87 32.5659 314.72 32.5417 314.573C32.5175 314.426 32.4646 314.285 32.3859 314.159L28.7079 308.212C28.6303 308.082 28.5273 307.968 28.4052 307.879C28.283 307.79 28.1442 307.726 27.9969 307.691C27.8496 307.656 27.6968 307.651 27.5477 307.677C27.3985 307.702 27.2558 307.757 27.1285 307.839Z" fill="#EFF4F9"/>
<path fill-rule="evenodd" clip-rule="evenodd" d="M54.3681 354.887C54.1169 355.049 53.9405 355.305 53.8774 355.597C53.8143 355.889 53.8698 356.195 54.0317 356.447L57.3921 361.844C57.4702 361.97 57.5726 362.08 57.6932 362.167C57.8139 362.254 57.9504 362.317 58.0952 362.351C58.2399 362.385 58.39 362.39 58.5366 362.366C58.6833 362.342 58.8239 362.289 58.9501 362.211C59.0763 362.132 59.1857 362.029 59.2721 361.908C59.3585 361.787 59.4201 361.651 59.4535 361.506C59.4869 361.361 59.4914 361.211 59.4667 361.064C59.4419 360.917 59.3885 360.777 59.3095 360.651L55.9491 355.254C55.871 355.124 55.7676 355.011 55.6451 354.922C55.5226 354.833 55.3834 354.77 55.236 354.735C55.0885 354.701 54.9357 354.697 54.7867 354.723C54.6376 354.749 54.4951 354.805 54.3681 354.887Z" fill="#EFF4F9"/>
<path fill-rule="evenodd" clip-rule="evenodd" d="M68.7156 318.737C68.6923 318.749 68.6693 318.762 68.6469 318.776L62.706 322.452C62.5713 322.525 62.453 322.625 62.3584 322.746C62.2639 322.867 62.195 323.006 62.1559 323.154C62.1168 323.303 62.1083 323.458 62.1311 323.61C62.1539 323.761 62.2073 323.907 62.2882 324.038C62.3691 324.168 62.4759 324.281 62.6018 324.369C62.7277 324.457 62.8701 324.518 63.0204 324.549C63.1707 324.58 63.3257 324.58 63.476 324.549C63.6263 324.518 63.7687 324.457 63.8945 324.369L69.8354 320.694C70.0909 320.543 70.2767 320.298 70.3525 320.011C70.4284 319.724 70.3882 319.418 70.2407 319.161C70.0933 318.903 69.8504 318.714 69.5645 318.633C69.2787 318.553 68.9729 318.589 68.7134 318.733L68.7156 318.737Z" fill="#EFF4F9"/>
<path fill-rule="evenodd" clip-rule="evenodd" d="M21.7139 345.955C21.6906 345.967 21.6676 345.98 21.6452 345.994L16.254 349.352C16.1197 349.426 16.0021 349.527 15.908 349.648C15.814 349.77 15.7457 349.909 15.7072 350.057C15.6688 350.206 15.6609 350.361 15.6842 350.512C15.7076 350.664 15.7617 350.809 15.8431 350.94C15.9245 351.07 16.0315 351.182 16.1577 351.269C16.2839 351.357 16.4266 351.418 16.577 351.448C16.7274 351.479 16.8824 351.478 17.0325 351.447C17.1826 351.415 17.3247 351.354 17.4502 351.265L22.8414 347.907C23.0961 347.756 23.2807 347.509 23.3553 347.222C23.4299 346.935 23.3886 346.63 23.2401 346.373C23.0917 346.116 22.8481 345.927 22.5621 345.848C22.2761 345.769 21.9706 345.806 21.7117 345.951L21.7139 345.955Z" fill="#EFF4F9"/>
<path fill-rule="evenodd" clip-rule="evenodd" d="M50.2283 304.657C50.083 304.734 49.956 304.841 49.8564 304.971C49.7569 305.102 49.687 305.252 49.6517 305.413L48.0541 312.22C48.0125 312.367 48.001 312.521 48.0206 312.673C48.0401 312.824 48.0902 312.97 48.1678 313.102C48.2453 313.234 48.3486 313.348 48.4716 313.439C48.5946 313.529 48.7347 313.594 48.8834 313.629C49.0321 313.664 49.1862 313.668 49.3366 313.642C49.4869 313.615 49.6303 313.559 49.7581 313.475C49.8858 313.392 49.9953 313.283 50.0799 313.156C50.1645 313.029 50.2225 312.886 50.2503 312.736L51.8501 305.932C51.9032 305.721 51.8938 305.498 51.8232 305.292C51.7526 305.085 51.6237 304.903 51.4522 304.769C51.2806 304.634 51.0737 304.551 50.8565 304.532C50.6393 304.512 50.4211 304.555 50.2283 304.657Z" fill="#EFF4F9"/>
<path fill-rule="evenodd" clip-rule="evenodd" d="M36.2571 357.17C36.1118 357.247 35.9851 357.355 35.8859 357.486C35.7867 357.618 35.7173 357.769 35.6827 357.93L34.2473 364.119C34.2137 364.263 34.2089 364.413 34.2332 364.559C34.2575 364.706 34.3104 364.846 34.3888 364.972C34.4672 365.098 34.5697 365.207 34.6903 365.294C34.8109 365.38 34.9473 365.442 35.0918 365.476C35.2362 365.509 35.3859 365.514 35.5322 365.49C35.6785 365.466 35.8186 365.413 35.9445 365.335C36.0704 365.257 36.1795 365.154 36.2658 365.034C36.3521 364.913 36.4137 364.777 36.4473 364.632L37.8827 358.443C37.9358 358.231 37.9262 358.008 37.8552 357.802C37.7842 357.595 37.6548 357.413 37.4828 357.278C37.3107 357.144 37.1033 357.062 36.8858 357.042C36.6682 357.023 36.4499 357.068 36.2571 357.17Z" fill="#EFF4F9"/>
<path fill-rule="evenodd" clip-rule="evenodd" d="M13.0964 326.329C12.9052 326.448 12.7537 326.62 12.6612 326.825C12.5687 327.03 12.5395 327.258 12.5773 327.479C12.6151 327.701 12.7182 327.907 12.8734 328.07C13.0286 328.232 13.2288 328.345 13.4483 328.394L20.25 330C20.3943 330.035 20.5439 330.04 20.6902 330.016C20.8366 329.992 20.9769 329.94 21.103 329.862C21.2291 329.784 21.3385 329.682 21.4251 329.561C21.5117 329.441 21.5738 329.305 21.6077 329.16C21.6417 329.016 21.6468 328.866 21.623 328.72C21.5991 328.573 21.5467 328.433 21.4687 328.307C21.3906 328.181 21.2884 328.071 21.168 327.984C21.0476 327.898 20.9113 327.835 20.767 327.801L13.9653 326.195C13.8188 326.158 13.6663 326.151 13.5171 326.174C13.3678 326.197 13.2248 326.25 13.0964 326.329Z" fill="#EFF4F9"/>
<path fill-rule="evenodd" clip-rule="evenodd" d="M65.5891 340.353C65.3987 340.471 65.248 340.644 65.1563 340.849C65.0645 341.054 65.0359 341.281 65.0741 341.503C65.1123 341.724 65.2155 341.929 65.3706 342.091C65.5257 342.254 65.7256 342.366 65.9448 342.415L72.1381 343.858C72.285 343.899 72.4387 343.91 72.5899 343.89C72.7412 343.87 72.887 343.82 73.0182 343.742C73.1494 343.664 73.2634 343.561 73.3534 343.437C73.4434 343.314 73.5074 343.174 73.5418 343.025C73.5761 342.876 73.58 342.722 73.5531 342.572C73.5262 342.422 73.4691 342.279 73.3853 342.151C73.3015 342.023 73.1927 341.914 73.0656 341.829C72.9384 341.745 72.7953 341.687 72.6452 341.659L66.458 340.218C66.3115 340.181 66.159 340.174 66.0098 340.197C65.8605 340.22 65.7175 340.273 65.5891 340.353Z" fill="#EFF4F9"/>
<path fill-rule="evenodd" clip-rule="evenodd" d="M30.4807 332.256C30.3898 332.314 30.3173 332.397 30.2718 332.494L27.3916 338.376C27.3589 338.443 27.3396 338.515 27.3349 338.589C27.3302 338.664 27.3402 338.738 27.3643 338.808C27.3883 338.879 27.426 338.944 27.4751 339C27.5243 339.055 27.5838 339.101 27.6505 339.134C27.7173 339.166 27.7897 339.186 27.8639 339.19C27.938 339.195 28.0124 339.185 28.0827 339.161C28.1529 339.137 28.2178 339.099 28.2735 339.05C28.3292 339.001 28.3747 338.942 28.4074 338.875L31.2817 332.991C31.337 332.882 31.3548 332.757 31.3326 332.636C31.3105 332.515 31.2495 332.404 31.1588 332.321C31.0682 332.238 30.9529 332.187 30.8305 332.175C30.7081 332.163 30.5852 332.192 30.4807 332.256Z" fill="#EFF4F9"/>
<path fill-rule="evenodd" clip-rule="evenodd" d="M31.4678 335.712C31.3567 335.775 31.2701 335.873 31.2223 335.992L28.6486 342.043C28.5898 342.181 28.5884 342.337 28.6444 342.476C28.7004 342.615 28.8093 342.727 28.9472 342.785C29.0852 342.844 29.2408 342.846 29.3799 342.79C29.519 342.734 29.6301 342.625 29.6888 342.487L32.2625 336.436C32.3115 336.327 32.3249 336.206 32.3007 336.089C32.2765 335.972 32.216 335.866 32.1278 335.786C32.0396 335.705 31.9283 335.655 31.8098 335.642C31.6913 335.629 31.5714 335.653 31.4678 335.712Z" fill="#EFF4F9"/>
<path fill-rule="evenodd" clip-rule="evenodd" d="M32.7476 339.172C32.6384 339.236 32.5541 339.335 32.5082 339.453L30.681 343.932C30.6242 344.071 30.6248 344.227 30.6828 344.365C30.7408 344.504 30.8515 344.614 30.9903 344.671C31.1292 344.728 31.2849 344.727 31.4232 344.669C31.5616 344.611 31.6713 344.501 31.7281 344.362L33.5553 339.883C33.603 339.773 33.6147 339.651 33.5887 339.535C33.5627 339.418 33.5001 339.312 33.4104 339.233C33.3206 339.154 33.2081 339.106 33.0891 339.095C32.97 339.084 32.8502 339.11 32.7476 339.172Z" fill="#EFF4F9"/>
<path fill-rule="evenodd" clip-rule="evenodd" d="M34.0022 341.627C33.893 341.691 33.8086 341.79 33.7626 341.908L31.9354 346.387C31.8786 346.526 31.8793 346.682 31.9374 346.821C31.9954 346.959 32.106 347.069 32.2448 347.126C32.3837 347.183 32.5395 347.183 32.6779 347.125C32.8163 347.067 32.9258 346.956 32.9827 346.817L34.8099 342.338C34.8577 342.228 34.8695 342.107 34.8435 341.99C34.8175 341.873 34.7551 341.767 34.6652 341.688C34.5754 341.609 34.4628 341.561 34.3437 341.55C34.2246 341.539 34.1048 341.565 34.0022 341.627Z" fill="#EFF4F9"/>
<path fill-rule="evenodd" clip-rule="evenodd" d="M35.6233 343.87C35.5141 343.935 35.4298 344.034 35.3839 344.152L33.5567 348.631C33.4999 348.77 33.5005 348.926 33.5585 349.064C33.6165 349.203 33.7272 349.313 33.866 349.369C34.0049 349.426 34.1606 349.426 34.2989 349.368C34.4373 349.31 34.547 349.2 34.6038 349.061L36.431 344.582C36.4787 344.472 36.4904 344.35 36.4644 344.233C36.4384 344.117 36.3759 344.011 36.2861 343.932C36.1963 343.853 36.0838 343.805 35.9648 343.794C35.8457 343.783 35.7259 343.809 35.6233 343.87Z" fill="#EFF4F9"/>
<path fill-rule="evenodd" clip-rule="evenodd" d="M37.287 345.218C37.1778 345.282 37.0934 345.381 37.0475 345.5L35.3871 349.536C35.3519 349.605 35.3315 349.681 35.3271 349.759C35.3228 349.837 35.3345 349.915 35.3617 349.988C35.3889 350.061 35.431 350.128 35.4851 350.184C35.5393 350.24 35.6045 350.284 35.6766 350.314C35.7487 350.344 35.8261 350.358 35.904 350.356C35.9819 350.354 36.0585 350.336 36.1291 350.304C36.1997 350.271 36.2628 350.224 36.3143 350.165C36.3658 350.107 36.4046 350.038 36.4283 349.964L38.0889 345.928C38.1347 345.819 38.1452 345.698 38.1189 345.583C38.0926 345.468 38.0308 345.364 37.9423 345.286C37.8538 345.207 37.743 345.159 37.6255 345.146C37.508 345.134 37.3894 345.159 37.287 345.218Z" fill="#EFF4F9"/>
<path fill-rule="evenodd" clip-rule="evenodd" d="M39.1987 345.928C39.0877 345.992 39.0019 346.093 38.9555 346.212L37.2951 350.249C37.2665 350.317 37.2517 350.391 37.2516 350.465C37.2514 350.539 37.266 350.613 37.2944 350.682C37.3227 350.75 37.3644 350.813 37.4169 350.865C37.4695 350.918 37.5319 350.96 37.6006 350.988C37.6693 351.017 37.7429 351.031 37.8172 351.031C37.8915 351.031 37.965 351.016 38.0336 350.988C38.1021 350.959 38.1644 350.917 38.2167 350.864C38.269 350.812 38.3104 350.749 38.3385 350.68L39.9989 346.644C40.0463 346.535 40.0581 346.414 40.0327 346.298C40.0072 346.182 39.9459 346.077 39.8573 345.998C39.7687 345.918 39.6574 345.869 39.5392 345.857C39.4211 345.845 39.3016 345.869 39.1987 345.928Z" fill="#EFF4F9"/>
<path fill-rule="evenodd" clip-rule="evenodd" d="M41.0993 346.39C41.0112 346.453 40.9431 346.54 40.9033 346.641L39.2391 350.68C39.1823 350.819 39.183 350.975 39.241 351.113C39.299 351.252 39.4096 351.361 39.5485 351.418C39.6874 351.475 39.8432 351.475 39.9816 351.417C40.1199 351.359 40.2295 351.248 40.2864 351.11L41.9468 347.073C41.9954 346.96 42.0056 346.834 41.9758 346.714C41.9461 346.594 41.878 346.488 41.782 346.41C41.6859 346.333 41.5672 346.289 41.444 346.286C41.3208 346.282 41.1995 346.318 41.0993 346.39Z" fill="#EFF4F9"/>
<path fill-rule="evenodd" clip-rule="evenodd" d="M43.4583 346.526C43.3473 346.59 43.2614 346.69 43.2149 346.81L41.5545 350.846C41.5193 350.916 41.4989 350.992 41.4946 351.07C41.4902 351.148 41.5019 351.225 41.5291 351.298C41.5563 351.372 41.5984 351.438 41.6526 351.494C41.7067 351.55 41.7719 351.595 41.844 351.624C41.9161 351.654 41.9935 351.668 42.0714 351.667C42.1493 351.665 42.2259 351.647 42.2966 351.614C42.3672 351.581 42.4302 351.534 42.4817 351.476C42.5332 351.417 42.572 351.349 42.5958 351.274L44.26 347.236C44.3057 347.127 44.3161 347.006 44.2898 346.891C44.2635 346.776 44.2018 346.672 44.1133 346.594C44.0248 346.516 43.9141 346.467 43.7967 346.455C43.6792 346.443 43.5607 346.467 43.4583 346.526Z" fill="#EFF4F9"/>
<path fill-rule="evenodd" clip-rule="evenodd" d="M164.673 385.185C164.491 385.14 164.3 385.139 164.119 385.183C163.937 385.228 163.77 385.315 163.631 385.438C163.631 385.438 155.257 392.824 151.915 397.7C148.458 402.744 145.618 408.388 144.121 414.369C142.978 418.931 142.636 425.675 142.55 431.353C142.464 437.03 142.655 441.615 142.655 441.615C142.666 441.868 142.763 442.11 142.929 442.303C143.096 442.496 143.323 442.629 143.575 442.681L153.061 444.64C153.284 444.686 153.515 444.666 153.725 444.582C153.935 444.498 154.114 444.354 154.24 444.168L159.528 436.334C159.545 436.309 159.561 436.283 159.577 436.257C159.577 436.257 164.719 427.213 166.275 421.913C167.894 416.403 168.654 410.597 168.575 404.855C168.483 398.262 165.518 386.026 165.518 386.026C165.469 385.823 165.364 385.638 165.215 385.489C165.066 385.341 164.878 385.235 164.673 385.185ZM163.706 388.499C164.317 391.198 166.216 399.772 166.287 404.866C166.364 410.39 165.628 415.982 164.075 421.268C162.709 425.92 157.595 435.103 157.58 435.13L152.754 442.277L144.931 440.664C144.905 439.972 144.762 436.531 144.839 431.406C144.924 425.796 145.305 419.076 146.345 414.924C147.762 409.265 150.473 403.843 153.813 398.97C156.277 395.375 161.737 390.305 163.706 388.499Z" fill="#EFF4F9"/>
<path fill-rule="evenodd" clip-rule="evenodd" d="M162.868 387.023L147.659 442.678L149.867 443.293L165.077 387.638L162.868 387.023Z" fill="#EFF4F9"/>
<path fill-rule="evenodd" clip-rule="evenodd" d="M196.985 398.063C196.781 398.008 196.565 398.011 196.363 398.069C196.363 398.069 187.715 400.556 183.431 402.585C179.055 404.657 174.69 407.048 170.94 410.246C168.581 412.258 165.413 416.691 165.413 416.691C165.325 416.811 165.263 416.947 165.229 417.091C165.196 417.234 165.191 417.384 165.216 417.53C165.241 417.676 165.295 417.816 165.375 417.942C165.455 418.069 165.559 418.178 165.681 418.265C165.804 418.352 165.942 418.415 166.089 418.449C166.235 418.484 166.387 418.489 166.535 418.466C166.683 418.443 166.825 418.391 166.953 418.314C167.08 418.236 167.191 418.135 167.278 418.015C167.278 418.015 170.623 413.512 172.447 411.956C175.961 408.96 180.147 406.649 184.439 404.617C187.623 403.109 192.714 401.631 194.868 400.983C194.139 403.412 191.058 413.823 188.502 419.814C187.464 422.245 186.44 424.639 184.968 426.62C181.55 431.216 177.15 435.158 172.528 438.743C169.65 440.976 163.545 444.264 162.715 444.714L156.728 439.554C156.616 439.446 156.483 439.362 156.338 439.307C156.192 439.251 156.037 439.226 155.881 439.231C155.726 439.237 155.573 439.273 155.433 439.339C155.293 439.404 155.169 439.498 155.067 439.613C154.965 439.728 154.888 439.862 154.841 440.008C154.794 440.153 154.778 440.307 154.793 440.46C154.809 440.612 154.856 440.76 154.931 440.895C155.007 441.03 155.109 441.148 155.232 441.243L161.86 446.952C162.037 447.105 162.256 447.2 162.488 447.227C162.721 447.253 162.955 447.209 163.16 447.1C163.16 447.1 170.483 443.214 173.957 440.519C178.664 436.868 183.221 432.798 186.82 427.959C188.506 425.691 189.577 423.131 190.613 420.703C193.595 413.714 197.798 399.478 197.798 399.478C197.841 399.334 197.854 399.182 197.836 399.031C197.818 398.881 197.77 398.736 197.694 398.604C197.618 398.472 197.517 398.356 197.395 398.263C197.273 398.171 197.134 398.102 196.985 398.063Z" fill="#EFF4F9"/>
<path fill-rule="evenodd" clip-rule="evenodd" d="M182.462 414.713C182.442 414.707 182.421 414.702 182.401 414.697L170.001 411.848L169.502 414.041L181.325 416.758L185.544 426.734L187.658 425.885L183.208 415.368C183.142 415.211 183.041 415.069 182.912 414.955C182.782 414.841 182.629 414.757 182.463 414.709L182.462 414.713Z" fill="#EFF4F9"/>
<path fill-rule="evenodd" clip-rule="evenodd" d="M176.474 406.667L175.827 408.82L186.263 411.926L188.984 419.311L191.137 418.558L188.217 410.637C188.155 410.471 188.055 410.32 187.924 410.198C187.794 410.076 187.636 409.986 187.464 409.935L176.474 406.667Z" fill="#EFF4F9"/>
<path fill-rule="evenodd" clip-rule="evenodd" d="M157.03 399.645C156.948 399.628 156.864 399.629 156.783 399.647C156.702 399.666 156.626 399.702 156.561 399.752L147.246 406.735C147.183 406.778 147.13 406.833 147.089 406.898C147.048 406.962 147.021 407.033 147.01 407.108C146.998 407.183 147.002 407.26 147.021 407.333C147.04 407.407 147.074 407.477 147.121 407.537C147.167 407.598 147.226 407.649 147.293 407.687C147.36 407.725 147.434 407.749 147.511 407.758C147.588 407.767 147.665 407.761 147.739 407.74C147.813 407.719 147.882 407.684 147.941 407.636L157.26 400.654C157.349 400.59 157.418 400.502 157.457 400.399C157.495 400.297 157.503 400.186 157.479 400.079C157.454 399.972 157.399 399.874 157.319 399.797C157.239 399.72 157.139 399.667 157.03 399.645Z" fill="#EFF4F9"/>
<path fill-rule="evenodd" clip-rule="evenodd" d="M155.712 404.65C155.631 404.63 155.547 404.627 155.465 404.642C155.383 404.658 155.306 404.69 155.239 404.738L146.225 410.977C146.164 411.02 146.112 411.074 146.072 411.136C146.032 411.199 146.005 411.268 145.993 411.341C145.98 411.414 145.982 411.489 145.999 411.561C146.016 411.634 146.047 411.702 146.091 411.763C146.135 411.824 146.19 411.875 146.254 411.915C146.318 411.955 146.389 411.982 146.463 411.995C146.537 412.008 146.613 412.007 146.687 411.99C146.76 411.974 146.829 411.944 146.89 411.902L155.904 405.663C155.995 405.601 156.065 405.516 156.107 405.415C156.149 405.315 156.16 405.205 156.14 405.098C156.119 404.991 156.068 404.892 155.992 404.813C155.916 404.733 155.819 404.676 155.712 404.65Z" fill="#EFF4F9"/>
<path fill-rule="evenodd" clip-rule="evenodd" d="M153.76 410.31C153.679 410.292 153.595 410.292 153.514 410.31C153.433 410.328 153.357 410.363 153.292 410.413L144.025 417.198C143.904 417.287 143.824 417.42 143.802 417.568C143.781 417.715 143.82 417.866 143.911 417.987C144.002 418.107 144.138 418.187 144.289 418.21C144.439 418.232 144.592 418.195 144.714 418.106L153.981 411.316C154.07 411.252 154.138 411.164 154.177 411.063C154.216 410.962 154.224 410.851 154.2 410.745C154.177 410.639 154.123 410.541 154.045 410.464C153.967 410.387 153.868 410.333 153.76 410.31Z" fill="#EFF4F9"/>
<path fill-rule="evenodd" clip-rule="evenodd" d="M152.74 415.29C152.659 415.272 152.574 415.272 152.492 415.289C152.411 415.307 152.334 415.342 152.268 415.392L144.443 421.121C144.383 421.165 144.332 421.22 144.294 421.284C144.256 421.347 144.231 421.418 144.22 421.491C144.21 421.564 144.214 421.639 144.233 421.711C144.251 421.783 144.284 421.851 144.329 421.91C144.374 421.97 144.431 422.02 144.496 422.058C144.561 422.097 144.632 422.122 144.707 422.133C144.781 422.144 144.857 422.141 144.93 422.123C145.003 422.105 145.072 422.073 145.132 422.029L152.958 416.296C153.046 416.232 153.114 416.145 153.152 416.044C153.191 415.943 153.2 415.833 153.177 415.727C153.154 415.621 153.101 415.524 153.023 415.446C152.946 415.369 152.848 415.314 152.74 415.29Z" fill="#EFF4F9"/>
<path fill-rule="evenodd" clip-rule="evenodd" d="M150.967 421.198C150.887 421.177 150.802 421.175 150.721 421.19C150.639 421.205 150.562 421.237 150.494 421.285L143.436 426.091C143.312 426.176 143.228 426.306 143.202 426.453C143.176 426.6 143.21 426.752 143.298 426.875C143.385 426.998 143.519 427.083 143.668 427.109C143.818 427.136 143.972 427.104 144.096 427.019L151.15 422.212C151.241 422.151 151.313 422.066 151.355 421.967C151.398 421.867 151.411 421.757 151.391 421.65C151.372 421.543 151.322 421.443 151.247 421.362C151.171 421.282 151.074 421.225 150.967 421.198Z" fill="#EFF4F9"/>
<path fill-rule="evenodd" clip-rule="evenodd" d="M149.616 427.018C149.471 426.982 149.317 427.002 149.188 427.076L143.778 430.056C143.711 430.091 143.652 430.139 143.605 430.197C143.557 430.255 143.522 430.322 143.501 430.394C143.48 430.466 143.474 430.541 143.483 430.616C143.492 430.69 143.516 430.762 143.554 430.828C143.592 430.893 143.642 430.951 143.702 430.997C143.763 431.043 143.832 431.077 143.905 431.097C143.979 431.117 144.055 431.122 144.131 431.112C144.206 431.103 144.279 431.078 144.344 431.041L149.754 428.061C149.855 428.007 149.938 427.925 149.99 427.824C150.042 427.723 150.062 427.609 150.048 427.496C150.033 427.383 149.984 427.277 149.907 427.192C149.83 427.106 149.728 427.046 149.616 427.018Z" fill="#EFF4F9"/>
</svg>
