<svg width="160" height="68" viewBox="0 0 160 68" fill="none" xmlns="http://www.w3.org/2000/svg">
<path d="M1 14.5557C1 14.5557 22 -15.9446 56.5 14.5557C80.486 35.7608 73 -10.4446 109 14.5557C152 44.4171 159 14.5557 159 14.5557M1 32.0554C1 32.0554 22 1.55516 56.5 32.0554C80.486 53.2606 73 7.05517 109 32.0554C152 61.9168 159 32.0554 159 32.0554M1 53.0554C1 53.0554 22 22.5552 56.5 53.0554C80.486 74.2606 73 28.0552 109 53.0554C152 82.9168 159 53.0554 159 53.0554" stroke="#1188EE" stroke-width="2" stroke-linecap="round" stroke-linejoin="round"/>
</svg>
